<svg xmlns="http://www.w3.org/2000/svg" xmlns:xlink="http://www.w3.org/1999/xlink" width="140" zoomAndPan="magnify" viewBox="0 0 104.88 30.000001" height="40" preserveAspectRatio="xMidYMid meet" version="1.0"><defs><g/><clipPath id="d462f342c2"><path d="M 15 11 L 23 11 L 23 20.882812 L 15 20.882812 Z M 15 11 " clip-rule="nonzero"/></clipPath><clipPath id="7f32d4f217"><path d="M 17 12 L 25.96875 12 L 25.96875 19 L 17 19 Z M 17 12 " clip-rule="nonzero"/></clipPath><clipPath id="8e06814b2a"><path d="M 15 5.640625 L 25.96875 5.640625 L 25.96875 16 L 15 16 Z M 15 5.640625 " clip-rule="nonzero"/></clipPath></defs><g clip-path="url(#d462f342c2)"><path fill="#002654" d="M 16.90625 17.167969 C 15.921875 14.921875 16.808594 12.300781 18.886719 11.140625 C 18.777344 11.183594 18.667969 11.226562 18.558594 11.277344 C 16.257812 12.335938 15.230469 15.105469 16.261719 17.464844 C 17.292969 19.824219 19.992188 20.878906 22.292969 19.820312 C 22.402344 19.773438 22.507812 19.71875 22.609375 19.660156 C 20.386719 20.480469 17.886719 19.417969 16.90625 17.167969 " fill-opacity="1" fill-rule="nonzero"/></g><g clip-path="url(#7f32d4f217)"><path fill="#002654" d="M 24.960938 14.363281 C 24.945312 14.921875 24.800781 15.484375 24.511719 16.003906 C 23.578125 17.679688 21.496094 18.261719 19.859375 17.304688 C 18.320312 16.402344 17.726562 14.457031 18.441406 12.832031 C 18.375 12.929688 18.316406 13.027344 18.257812 13.128906 C 17.269531 14.90625 17.871094 17.167969 19.601562 18.183594 C 21.335938 19.199219 23.542969 18.582031 24.535156 16.804688 C 24.960938 16.035156 25.09375 15.171875 24.960938 14.363281 " fill-opacity="1" fill-rule="nonzero"/></g><g clip-path="url(#8e06814b2a)"><path fill="#002654" d="M 22.035156 7.863281 C 22.035156 7.863281 22.402344 7.777344 22.773438 8.347656 C 23.046875 8.769531 23.242188 8.910156 23.242188 8.910156 C 23.242188 8.910156 22.316406 8.617188 22.035156 7.863281 Z M 25.777344 10.257812 C 25.144531 9.929688 23.683594 9.066406 22.632812 7.597656 C 22.378906 7.242188 22.0625 7.007812 21.734375 6.851562 C 21.371094 6.539062 21.367188 6.261719 21.367188 5.640625 C 21.367188 5.640625 20.699219 5.800781 20.28125 6.59375 C 20.210938 6.441406 20.273438 5.960938 20.453125 5.648438 C 20.453125 5.648438 19.484375 5.761719 19.375 6.949219 C 19.1875 7.054688 19.011719 7.1875 18.84375 7.332031 C 17.679688 8.367188 14.371094 11.105469 15.175781 15.664062 C 15.175781 15.664062 15.246094 9.558594 21.238281 9.859375 C 21.238281 9.859375 19.785156 10.542969 18.703125 12.371094 C 18.929688 12.023438 21.367188 10.09375 24.113281 10.90625 C 24.675781 11.074219 25.285156 11.011719 25.789062 10.703125 C 25.789062 10.699219 25.792969 10.699219 25.792969 10.699219 C 25.960938 10.597656 25.949219 10.347656 25.777344 10.257812 " fill-opacity="1" fill-rule="nonzero"/></g><g fill="#002654" fill-opacity="1"><g transform="translate(2.733444, 19.354857)"><g><path d="M 10.273438 -9.578125 L 10.273438 -13.546875 L 1.0625 -13.546875 L 1.0625 0 L 5.628906 0 L 5.628906 -4.335938 L 9.773438 -4.335938 L 9.773438 -8.144531 L 5.628906 -8.144531 L 5.628906 -9.578125 Z M 10.273438 -9.578125 "/></g></g></g><g fill="#ffffff" fill-opacity="1"><g transform="translate(27.917378, 19.112881)"><g><path d="M 13.914062 0 L 9.925781 -6.945312 L 13.71875 -13.546875 L 8.628906 -13.546875 L 6.871094 -9.90625 L 5.109375 -13.546875 L 0.0195312 -13.546875 L 3.792969 -6.945312 L -0.175781 0 L 4.972656 0 L 6.871094 -3.734375 L 8.785156 0 Z M 13.914062 0 "/></g></g></g><g fill="#ffffff" fill-opacity="1"><g transform="translate(41.653898, 19.112881)"><g><path d="M 0.910156 -3.386719 L 8.996094 -3.386719 L 8.996094 -7.101562 L 0.910156 -7.101562 Z M 0.910156 -3.386719 "/></g></g></g><g fill="#ffffff" fill-opacity="1"><g transform="translate(51.559668, 19.112881)"><g><path d="M 1.0625 0 L 5.667969 0 L 5.667969 -13.546875 L 1.0625 -13.546875 Z M 1.0625 0 "/></g></g></g><g fill="#ffffff" fill-opacity="1"><g transform="translate(58.292493, 19.112881)"><g><path d="M 7.488281 -13.546875 L 1.0625 -13.546875 L 1.0625 0 L 5.574219 0 L 5.574219 -3.25 L 7.488281 -3.25 C 10.546875 -3.25 12.75 -5.398438 12.75 -8.417969 C 12.75 -11.4375 10.546875 -13.546875 7.488281 -13.546875 Z M 6.617188 -6.964844 L 5.574219 -6.964844 L 5.574219 -9.828125 L 6.617188 -9.828125 C 7.488281 -9.828125 8.070312 -9.25 8.070312 -8.398438 C 8.070312 -7.546875 7.488281 -6.964844 6.617188 -6.964844 Z M 6.617188 -6.964844 "/></g></g></g><g fill="#ce1126" fill-opacity="1"><g transform="translate(74.198881, 19.233873)"><g><path d="M 12.113281 -13.546875 L 0.269531 -13.546875 L 0.269531 -9.617188 L 3.929688 -9.617188 L 3.929688 0 L 8.457031 0 L 8.457031 -9.617188 L 12.113281 -9.617188 Z M 12.113281 -13.546875 "/></g></g></g><g fill="#ce1126" fill-opacity="1"><g transform="translate(86.581093, 19.233873)"><g><path d="M 9.367188 -13.546875 L 7.238281 -6.347656 L 5.128906 -13.546875 L -0.15625 -13.546875 L 5.1875 0 L 9.308594 0 L 14.648438 -13.546875 Z M 9.367188 -13.546875 "/></g></g></g></svg>