<svg xmlns="http://www.w3.org/2000/svg" xmlns:xlink="http://www.w3.org/1999/xlink" width="140" zoomAndPan="magnify" viewBox="0 0 104.88 30.000001" height="40" preserveAspectRatio="xMidYMid meet" version="1.0"><defs><g/><clipPath id="b1208dd3c0"><path d="M 1.632812 0 L 103.128906 0 L 103.128906 29.03125 L 1.632812 29.03125 Z M 1.632812 0 " clip-rule="nonzero"/></clipPath><clipPath id="c5317b2bfc"><path d="M 17 14 L 25.96875 14 L 25.96875 21 L 17 21 Z M 17 14 " clip-rule="nonzero"/></clipPath><clipPath id="fd315f19fb"><path d="M 15 7.089844 L 25.96875 7.089844 L 25.96875 18 L 15 18 Z M 15 7.089844 " clip-rule="nonzero"/></clipPath></defs><g clip-path="url(#b1208dd3c0)"><path fill="#ffffff" d="M 1.632812 0 L 103.246094 0 L 103.246094 36.289062 L 1.632812 36.289062 Z M 1.632812 0 " fill-opacity="1" fill-rule="nonzero"/><path fill="#ffffff" d="M 1.632812 0 L 103.246094 0 L 103.246094 29.03125 L 1.632812 29.03125 Z M 1.632812 0 " fill-opacity="1" fill-rule="nonzero"/><path fill="#000000" d="M 1.632812 0 L 103.246094 0 L 103.246094 29.03125 L 1.632812 29.03125 Z M 1.632812 0 " fill-opacity="1" fill-rule="nonzero"/></g><path fill="#002654" d="M 16.90625 18.621094 C 15.921875 16.371094 16.808594 13.75 18.886719 12.59375 C 18.777344 12.632812 18.667969 12.679688 18.558594 12.730469 C 16.257812 13.789062 15.230469 16.558594 16.261719 18.917969 C 17.292969 21.277344 19.992188 22.332031 22.292969 21.273438 C 22.402344 21.222656 22.507812 21.167969 22.609375 21.113281 C 20.386719 21.933594 17.886719 20.867188 16.90625 18.621094 " fill-opacity="1" fill-rule="nonzero"/><g clip-path="url(#c5317b2bfc)"><path fill="#002654" d="M 24.960938 15.8125 C 24.945312 16.371094 24.800781 16.933594 24.511719 17.453125 C 23.578125 19.128906 21.496094 19.714844 19.859375 18.753906 C 18.320312 17.851562 17.726562 15.910156 18.441406 14.285156 C 18.375 14.378906 18.316406 14.476562 18.257812 14.578125 C 17.269531 16.355469 17.871094 18.621094 19.601562 19.636719 C 21.335938 20.652344 23.542969 20.035156 24.535156 18.257812 C 24.960938 17.488281 25.09375 16.625 24.960938 15.8125 " fill-opacity="1" fill-rule="nonzero"/></g><g clip-path="url(#fd315f19fb)"><path fill="#002654" d="M 22.035156 9.316406 C 22.035156 9.316406 22.402344 9.226562 22.773438 9.796875 C 23.046875 10.222656 23.242188 10.359375 23.242188 10.359375 C 23.242188 10.359375 22.316406 10.070312 22.035156 9.316406 Z M 25.777344 11.710938 C 25.144531 11.382812 23.683594 10.519531 22.632812 9.046875 C 22.378906 8.695312 22.0625 8.457031 21.734375 8.304688 C 21.371094 7.988281 21.367188 7.714844 21.367188 7.089844 C 21.367188 7.089844 20.699219 7.25 20.28125 8.042969 C 20.210938 7.894531 20.273438 7.414062 20.453125 7.101562 C 20.453125 7.101562 19.484375 7.214844 19.375 8.402344 C 19.1875 8.503906 19.011719 8.636719 18.84375 8.785156 C 17.679688 9.816406 14.371094 12.558594 15.175781 17.113281 C 15.175781 17.113281 15.246094 11.007812 21.238281 11.308594 C 21.238281 11.308594 19.785156 11.996094 18.703125 13.824219 C 18.929688 13.476562 21.367188 11.546875 24.113281 12.359375 C 24.675781 12.523438 25.285156 12.460938 25.789062 12.152344 C 25.789062 12.152344 25.792969 12.152344 25.792969 12.152344 C 25.960938 12.046875 25.949219 11.796875 25.777344 11.710938 " fill-opacity="1" fill-rule="nonzero"/></g><g fill="#002654" fill-opacity="1"><g transform="translate(2.733444, 20.80647)"><g><path d="M 10.273438 -9.578125 L 10.273438 -13.546875 L 1.0625 -13.546875 L 1.0625 0 L 5.628906 0 L 5.628906 -4.335938 L 9.773438 -4.335938 L 9.773438 -8.144531 L 5.628906 -8.144531 L 5.628906 -9.578125 Z M 10.273438 -9.578125 "/></g></g></g><g fill="#ffffff" fill-opacity="1"><g transform="translate(27.917378, 20.564494)"><g><path d="M 13.914062 0 L 9.925781 -6.945312 L 13.71875 -13.546875 L 8.628906 -13.546875 L 6.871094 -9.90625 L 5.109375 -13.546875 L 0.0195312 -13.546875 L 3.792969 -6.945312 L -0.175781 0 L 4.972656 0 L 6.871094 -3.734375 L 8.785156 0 Z M 13.914062 0 "/></g></g></g><g fill="#ffffff" fill-opacity="1"><g transform="translate(41.653898, 20.564494)"><g><path d="M 0.910156 -3.386719 L 8.996094 -3.386719 L 8.996094 -7.101562 L 0.910156 -7.101562 Z M 0.910156 -3.386719 "/></g></g></g><g fill="#ffffff" fill-opacity="1"><g transform="translate(51.559668, 20.564494)"><g><path d="M 1.0625 0 L 5.667969 0 L 5.667969 -13.546875 L 1.0625 -13.546875 Z M 1.0625 0 "/></g></g></g><g fill="#ffffff" fill-opacity="1"><g transform="translate(58.292493, 20.564494)"><g><path d="M 7.488281 -13.546875 L 1.0625 -13.546875 L 1.0625 0 L 5.574219 0 L 5.574219 -3.25 L 7.488281 -3.25 C 10.546875 -3.25 12.75 -5.398438 12.75 -8.417969 C 12.75 -11.4375 10.546875 -13.546875 7.488281 -13.546875 Z M 6.617188 -6.964844 L 5.574219 -6.964844 L 5.574219 -9.828125 L 6.617188 -9.828125 C 7.488281 -9.828125 8.070312 -9.25 8.070312 -8.398438 C 8.070312 -7.546875 7.488281 -6.964844 6.617188 -6.964844 Z M 6.617188 -6.964844 "/></g></g></g><g fill="#ce1126" fill-opacity="1"><g transform="translate(74.198881, 20.685486)"><g><path d="M 12.113281 -13.546875 L 0.269531 -13.546875 L 0.269531 -9.617188 L 3.929688 -9.617188 L 3.929688 0 L 8.457031 0 L 8.457031 -9.617188 L 12.113281 -9.617188 Z M 12.113281 -13.546875 "/></g></g></g><g fill="#ce1126" fill-opacity="1"><g transform="translate(86.581093, 20.685486)"><g><path d="M 9.367188 -13.546875 L 7.238281 -6.347656 L 5.128906 -13.546875 L -0.15625 -13.546875 L 5.1875 0 L 9.308594 0 L 14.648438 -13.546875 Z M 9.367188 -13.546875 "/></g></g></g></svg>