<svg xmlns="http://www.w3.org/2000/svg" xmlns:xlink="http://www.w3.org/1999/xlink" width="80" zoomAndPan="magnify" viewBox="0 0 60 60" height="80" preserveAspectRatio="xMidYMid meet" version="1.0"><defs><clipPath id="51a9c6f44c"><path d="M 39 48 L 48 48 L 48 58.722656 L 39 58.722656 Z M 39 48 " clip-rule="nonzero"/></clipPath><clipPath id="6431dabe21"><path d="M 12 48 L 22 48 L 22 58.722656 L 12 58.722656 Z M 12 48 " clip-rule="nonzero"/></clipPath><clipPath id="11cb8af77f"><path d="M 9 13 L 55.210938 13 L 55.210938 58.722656 L 9 58.722656 Z M 9 13 " clip-rule="nonzero"/></clipPath></defs><g clip-path="url(#51a9c6f44c)"><path fill="#9ec1cf" d="M 44.46875 48.429688 L 47.847656 56.382812 C 47.847656 56.382812 48.324219 57.746094 46.746094 58.292969 C 46.746094 58.292969 45.722656 58.699219 44.621094 57.472656 L 39.078125 51.675781 L 44.46875 48.429688 " fill-opacity="1" fill-rule="nonzero"/></g><g clip-path="url(#6431dabe21)"><path fill="#9ec1cf" d="M 15.675781 48.429688 L 12.300781 56.382812 C 12.300781 56.382812 11.820312 57.746094 13.402344 58.292969 C 13.402344 58.292969 14.421875 58.699219 15.527344 57.472656 L 21.070312 51.675781 L 15.675781 48.429688 " fill-opacity="1" fill-rule="nonzero"/></g><path fill="#9ec1cf" d="M 39.542969 16.320312 L 42.851562 18.175781 L 46.117188 12.460938 L 42.804688 10.605469 L 39.542969 16.320312 " fill-opacity="1" fill-rule="nonzero"/><path fill="#ef2a45" d="M 36.285156 6.910156 C 38.875 2.5 44.570312 0.957031 49.0625 3.480469 C 53.554688 6 55.152344 11.632812 52.667969 16.101562 L 36.285156 6.910156 " fill-opacity="1" fill-rule="nonzero"/><path fill="#9ec1cf" d="M 20.601562 16.320312 L 17.292969 18.175781 L 14.03125 12.460938 L 17.339844 10.605469 L 20.601562 16.320312 " fill-opacity="1" fill-rule="nonzero"/><path fill="#ef2a45" d="M 23.859375 6.910156 C 21.269531 2.5 15.578125 0.957031 11.085938 3.480469 C 6.59375 6 4.992188 11.632812 7.480469 16.101562 L 23.859375 6.910156 " fill-opacity="1" fill-rule="nonzero"/><path fill="#ef2a45" d="M 52.738281 32.882812 C 52.738281 45.289062 42.589844 55.347656 30.074219 55.347656 C 17.554688 55.347656 7.410156 45.289062 7.410156 32.882812 C 7.410156 20.472656 17.554688 10.414062 30.074219 10.414062 C 42.589844 10.414062 52.738281 20.472656 52.738281 32.882812 " fill-opacity="1" fill-rule="nonzero"/><path fill="#ffffff" d="M 48.429688 32.882812 C 48.429688 42.929688 40.210938 51.074219 30.074219 51.074219 C 19.9375 51.074219 11.71875 42.929688 11.71875 32.882812 C 11.71875 22.832031 19.9375 14.683594 30.074219 14.683594 C 40.210938 14.683594 48.429688 22.832031 48.429688 32.882812 " fill-opacity="1" fill-rule="nonzero"/><path stroke-linecap="butt" transform="matrix(0.0285161, 0, 0, -0.0282673, -30.552305, 90.408339)" fill="none" stroke-linejoin="miter" d="M 2126.042049 2458.887565 L 2126.042049 2105.2595 " stroke="#24537d" stroke-width="50" stroke-opacity="1" stroke-miterlimit="10"/><g clip-path="url(#11cb8af77f)"><path stroke-linecap="butt" transform="matrix(0.0285161, 0, 0, -0.0282673, -30.552305, 90.408339)" fill="none" stroke-linejoin="miter" d="M 2126.042049 2021.654584 L 2548.089143 1820.864597 " stroke="#24537d" stroke-width="50" stroke-opacity="1" stroke-miterlimit="10"/></g><path fill="#ef2a45" d="M 32.070312 32.882812 C 32.070312 33.976562 31.175781 34.863281 30.074219 34.863281 C 28.96875 34.863281 28.074219 33.976562 28.074219 32.882812 C 28.074219 31.785156 28.96875 30.898438 30.074219 30.898438 C 31.175781 30.898438 32.070312 31.785156 32.070312 32.882812 " fill-opacity="1" fill-rule="nonzero"/><path fill="#ef2a45" d="M 31.175781 48.429688 C 31.175781 49.03125 30.679688 49.519531 30.074219 49.519531 C 29.464844 49.519531 28.972656 49.03125 28.972656 48.429688 C 28.972656 47.828125 29.464844 47.339844 30.074219 47.339844 C 30.679688 47.339844 31.175781 47.828125 31.175781 48.429688 " fill-opacity="1" fill-rule="nonzero"/><path fill="#ef2a45" d="M 31.175781 17.332031 C 31.175781 17.933594 30.679688 18.421875 30.074219 18.421875 C 29.464844 18.421875 28.972656 17.933594 28.972656 17.332031 C 28.972656 16.730469 29.464844 16.238281 30.074219 16.238281 C 30.679688 16.238281 31.175781 16.730469 31.175781 17.332031 " fill-opacity="1" fill-rule="nonzero"/><path fill="#ef2a45" d="M 14.386719 33.972656 C 13.777344 33.972656 13.285156 33.484375 13.285156 32.882812 C 13.285156 32.277344 13.777344 31.789062 14.386719 31.789062 C 14.996094 31.789062 15.488281 32.277344 15.488281 32.882812 C 15.488281 33.484375 14.996094 33.972656 14.386719 33.972656 " fill-opacity="1" fill-rule="nonzero"/><path fill="#ef2a45" d="M 45.757812 33.972656 C 45.152344 33.972656 44.660156 33.484375 44.660156 32.882812 C 44.660156 32.277344 45.152344 31.789062 45.757812 31.789062 C 46.367188 31.789062 46.859375 32.277344 46.859375 32.882812 C 46.859375 33.484375 46.367188 33.972656 45.757812 33.972656 " fill-opacity="1" fill-rule="nonzero"/><path fill="#ef2a45" d="M 22.503906 46.542969 C 22.171875 47.046875 21.492188 47.195312 20.980469 46.867188 C 20.46875 46.542969 20.320312 45.867188 20.652344 45.359375 C 20.980469 44.855469 21.660156 44.707031 22.171875 45.035156 C 22.683594 45.359375 22.832031 46.035156 22.503906 46.542969 " fill-opacity="1" fill-rule="nonzero"/><path fill="#ef2a45" d="M 39.496094 20.402344 C 39.167969 20.90625 38.484375 21.054688 37.972656 20.726562 C 37.464844 20.398438 37.316406 19.726562 37.644531 19.21875 C 37.972656 18.710938 38.65625 18.566406 39.167969 18.890625 C 39.675781 19.21875 39.824219 19.894531 39.496094 20.402344 " fill-opacity="1" fill-rule="nonzero"/><path fill="#ef2a45" d="M 17.066406 41.640625 C 16.539062 41.941406 15.867188 41.765625 15.5625 41.246094 C 15.257812 40.726562 15.433594 40.058594 15.960938 39.753906 C 16.484375 39.449219 17.160156 39.628906 17.464844 40.148438 C 17.769531 40.667969 17.59375 41.339844 17.066406 41.640625 " fill-opacity="1" fill-rule="nonzero"/><path fill="#ef2a45" d="M 44.1875 26.007812 C 43.660156 26.308594 42.988281 26.132812 42.683594 25.613281 C 42.375 25.09375 42.554688 24.425781 43.078125 24.121094 C 43.605469 23.816406 44.277344 23.996094 44.585938 24.515625 C 44.890625 25.035156 44.710938 25.703125 44.1875 26.007812 " fill-opacity="1" fill-rule="nonzero"/><path fill="#ef2a45" d="M 15.636719 26.703125 C 15.097656 26.425781 14.886719 25.765625 15.164062 25.230469 C 15.441406 24.695312 16.109375 24.488281 16.648438 24.765625 C 17.1875 25.042969 17.398438 25.699219 17.121094 26.234375 C 16.839844 26.769531 16.175781 26.980469 15.636719 26.703125 " fill-opacity="1" fill-rule="nonzero"/><path fill="#ef2a45" d="M 43.5 40.996094 C 42.957031 40.71875 42.746094 40.0625 43.027344 39.527344 C 43.304688 38.992188 43.96875 38.78125 44.511719 39.058594 C 45.050781 39.335938 45.261719 39.992188 44.980469 40.527344 C 44.703125 41.0625 44.039062 41.273438 43.5 40.996094 " fill-opacity="1" fill-rule="nonzero"/><path fill="#ef2a45" d="M 21.097656 20.082031 C 20.785156 19.5625 20.957031 18.894531 21.480469 18.585938 C 22.003906 18.277344 22.679688 18.445312 22.988281 18.964844 C 23.300781 19.480469 23.128906 20.152344 22.609375 20.460938 C 22.085938 20.769531 21.410156 20.597656 21.097656 20.082031 " fill-opacity="1" fill-rule="nonzero"/><path fill="#ef2a45" d="M 37.15625 46.796875 C 36.84375 46.277344 37.015625 45.609375 37.539062 45.300781 C 38.058594 44.992188 38.738281 45.164062 39.046875 45.679688 C 39.359375 46.199219 39.1875 46.867188 38.664062 47.175781 C 38.144531 47.484375 37.46875 47.316406 37.15625 46.796875 " fill-opacity="1" fill-rule="nonzero"/></svg>